<?xml version="1.0" standalone="no"?>
<!DOCTYPE svg PUBLIC "-//W3C//DTD SVG 20010904//EN"
 "http://www.w3.org/TR/2001/REC-SVG-20010904/DTD/svg10.dtd">
<svg version="1.0" xmlns="http://www.w3.org/2000/svg"
 width="110.000000pt" height="94.000000pt" viewBox="0 0 110.000000 94.000000"
 preserveAspectRatio="xMidYMid meet">

<g transform="translate(0.000000,94.000000) scale(0.100000,-0.100000)"
fill="#000000" stroke="none">
<path d="M444 844 c-4 -10 -9 -22 -11 -26 -2 -5 0 -8 5 -8 10 0 24 41 17 48
-3 3 -8 -4 -11 -14z"/>
<path d="M571 855 c0 -5 6 -18 14 -28 13 -18 14 -18 24 2 14 26 14 42 0 18
-10 -18 -11 -18 -25 0 -7 10 -13 14 -13 8z"/>
<path d="M732 835 c-6 -14 -7 -25 -2 -25 9 0 25 39 18 46 -3 2 -10 -7 -16 -21z"/>
<path d="M472 830 c0 -14 2 -19 5 -12 2 6 2 18 0 25 -3 6 -5 1 -5 -13z"/>
<path d="M498 783 c-17 -4 -22 -15 -31 -75 -5 -32 11 -41 59 -32 22 4 34 12
34 23 0 9 3 32 6 51 6 34 4 36 -23 37 -15 0 -36 -1 -45 -4z"/>
<path d="M607 783 c-3 -5 -8 -29 -12 -55 l-7 -48 50 0 50 0 4 48 c3 26 3 50 1
55 -2 4 -22 7 -43 7 -21 0 -41 -3 -43 -7z"/>
<path d="M149 613 c0 -10 -4 -42 -8 -70 l-7 -53 58 0 c45 0 58 3 58 15 0 8 0
18 1 22 2 18 -19 12 -24 -7 -4 -14 -13 -20 -34 -20 -27 0 -29 2 -26 38 8 75
11 82 44 82 24 0 30 -4 25 -15 -3 -9 0 -15 8 -15 8 0 16 9 19 20 5 18 0 20
-54 20 -49 0 -59 -3 -60 -17z"/>
<path d="M508 623 c17 -2 32 -7 32 -9 0 -3 -11 -20 -24 -37 -13 -18 -31 -44
-41 -59 l-17 -28 58 1 c52 2 54 3 21 8 l-38 6 40 57 c23 31 41 59 41 62 0 3
-24 5 -52 4 -36 -1 -43 -2 -20 -5z"/>
<path d="M318 583 c51 -7 37 -28 -15 -22 -9 1 -21 -30 -22 -53 -1 -13 7 -18
27 -18 19 0 23 3 14 9 -16 10 -12 43 6 49 8 2 12 -7 12 -28 0 -51 25 -30 28
23 l3 47 -43 -2 c-37 -1 -38 -2 -10 -5z"/>
<path d="M400 571 c0 -10 -3 -33 -6 -50 -5 -24 -3 -31 10 -31 11 0 16 9 16 33
0 36 8 51 30 60 8 3 0 6 -17 6 -26 1 -33 -3 -33 -18z"/>
<path d="M596 559 c-12 -63 -9 -69 33 -69 42 0 51 13 51 73 0 25 -3 27 -39 27
-35 0 -39 -3 -45 -31z m54 -19 c0 -29 -4 -40 -15 -40 -10 0 -15 10 -15 33 0
19 3 37 7 40 15 16 23 5 23 -33z"/>
<path d="M710 578 c0 -7 -3 -30 -6 -50 -5 -31 -3 -38 9 -38 11 0 17 12 19 42
4 59 28 63 28 4 0 -25 4 -46 9 -46 11 0 21 35 21 73 0 25 -3 27 -40 27 -25 0
-40 -5 -40 -12z"/>
<path d="M820 578 c0 -7 -3 -30 -7 -51 l-6 -38 43 3 c40 3 72 28 36 28 -9 0
-16 -4 -16 -10 0 -5 -7 -10 -15 -10 -10 0 -15 10 -15 28 0 35 14 57 30 47 10
-6 9 -11 -5 -22 -18 -12 -17 -13 8 -13 22 0 27 5 27 25 0 23 -4 25 -40 25 -25
0 -40 -5 -40 -12z"/>
<path d="M453 413 c-16 -3 -24 -13 -28 -36 -7 -45 -45 -329 -45 -340 0 -5 23
19 52 53 l52 62 18 122 c9 66 18 127 18 134 0 12 -23 14 -67 5z"/>
<path d="M549 403 c0 -10 -6 -58 -13 -108 -7 -50 -13 -91 -12 -92 1 -1 26 29
57 65 41 49 58 78 64 110 l7 42 -51 0 c-42 0 -51 -3 -52 -17z"/>
</g>
</svg>
